<svg width="32" height="33" fill="none" xmlns="http://www.w3.org/2000/svg"><path d="M16 6.943v8.313l9.302-.001L23.15 13.1a.938.938 0 0 1-.091-1.22l.09-.106a.938.938 0 0 1 1.221-.09l.105.09 3.746 3.748a.938.938 0 0 1 .091 1.22l-.09.105-3.746 3.754a.938.938 0 0 1-1.418-1.219l.09-.105 2.142-2.147-9.29.001v8.431a.938.938 0 0 1-1.1.924L4.273 24.609a.937.937 0 0 1-.774-.923V8.688c0-.46.333-.851.786-.926L14.91 6.018A.938.938 0 0 1 16 6.943Zm-4.372 8.932a1.253 1.253 0 1 0 0 2.505 1.253 1.253 0 0 0 0-2.505Zm5.622 8.752h.956l.128-.009a.938.938 0 0 0 .81-.93l-.009-5.313H17.25v6.252ZM17.253 14l-.003-1.593V7.75h.932c.474 0 .866.352.928.809l.01.127.008 5.314h-1.875Z" fill="#262626"/></svg>