<svg width="175" height="41" fill="none" xmlns="http://www.w3.org/2000/svg"><path d="M18.666 14.476h5.635c-.717-5.187-5.289-8.836-11.218-8.836C6.155 5.64.815 10.634.815 19.137c0 8.298 4.995 13.446 12.383 13.446 6.621 0 11.346-4.188 11.346-11.09V18.19H13.57v4.175h5.634c-.077 3.253-2.292 5.314-5.98 5.314-4.162 0-6.787-3.111-6.787-8.592 0-5.455 2.728-8.542 6.736-8.542 2.856 0 4.79 1.473 5.493 3.932ZM28.577 32.224h5.455v-19.67h-5.455v19.67Zm2.74-22.205c1.627 0 2.959-1.242 2.959-2.766 0-1.51-1.332-2.753-2.958-2.753-1.614 0-2.946 1.242-2.946 2.753 0 1.524 1.332 2.766 2.946 2.766ZM47.603 12.555h-3.701V7.842h-5.456v4.713h-2.689v4.098h2.69v10.244c-.026 3.855 2.599 5.763 6.556 5.596a10.61 10.61 0 0 0 2.958-.512l-.858-4.06c-.269.052-.845.18-1.357.18-1.089 0-1.844-.41-1.844-1.921v-9.527h3.7v-4.098ZM58.57 32.608c5.967 0 9.681-4.084 9.681-10.142 0-6.095-3.714-10.167-9.681-10.167-5.968 0-9.681 4.072-9.681 10.167 0 6.057 3.713 10.142 9.68 10.142Zm.026-4.225c-2.754 0-4.162-2.523-4.162-5.955s1.408-5.968 4.162-5.968c2.702 0 4.11 2.536 4.11 5.968s-1.409 5.955-4.11 5.955ZM79.397 40.01c5.622 0 9.618-2.561 9.618-7.594V12.555h-5.417v3.304h-.205c-.73-1.601-2.33-3.56-5.622-3.56-4.315 0-7.965 3.355-7.965 10.052 0 6.544 3.547 9.592 7.978 9.592 3.137 0 4.892-1.576 5.609-3.202h.23v3.599c0 2.702-1.728 3.752-4.097 3.752-2.408 0-3.624-1.05-4.073-2.241l-5.045.678c.653 3.1 3.688 5.481 8.99 5.481Zm.116-12.165c-2.677 0-4.136-2.126-4.136-5.52 0-3.342 1.434-5.685 4.136-5.685 2.65 0 4.136 2.24 4.136 5.686 0 3.47-1.511 5.519-4.136 5.519ZM92.094 32.224h5.455V21.096c0-2.42 1.767-4.085 4.174-4.085.756 0 1.793.128 2.306.295v-4.84a8.2 8.2 0 0 0-1.716-.193c-2.203 0-4.009 1.28-4.726 3.714h-.205v-3.432h-5.288v19.67ZM110.632 32.596c2.907 0 4.79-1.268 5.75-3.1h.154v2.728h5.173V18.958c0-4.687-3.97-6.66-8.349-6.66-4.713 0-7.812 2.255-8.567 5.84l5.045.41c.372-1.306 1.537-2.267 3.496-2.267 1.857 0 2.92.935 2.92 2.549v.076c0 1.268-1.345 1.435-4.764 1.768-3.893.358-7.389 1.664-7.389 6.057 0 3.893 2.779 5.865 6.531 5.865Zm1.563-3.765c-1.678 0-2.882-.781-2.882-2.28 0-1.536 1.268-2.292 3.189-2.56 1.191-.167 3.137-.449 3.79-.884v2.087c0 2.062-1.703 3.637-4.097 3.637ZM124.679 32.224h5.456V20.418c0-2.177 1.383-3.624 3.201-3.624 1.793 0 2.997 1.229 2.997 3.162v12.268h5.288V20.213c0-2.037 1.166-3.42 3.15-3.42 1.742 0 3.048 1.089 3.048 3.279v12.152h5.443V18.996c0-4.264-2.536-6.697-6.198-6.697-2.882 0-5.123 1.472-5.929 3.726h-.205c-.628-2.28-2.638-3.726-5.34-3.726-2.651 0-4.661 1.408-5.481 3.726h-.231v-3.47h-5.199v19.67ZM174.815 4.769h-4.699l-8.452 31.4h4.7l8.451-31.4Z" fill="#292929"/></svg>